<?xml version="1.0" encoding="utf-8"?>
<!-- Generator: Adobe Illustrator 18.0.0, SVG Export Plug-In . SVG Version: 6.00 Build 0)  -->
<!DOCTYPE svg PUBLIC "-//W3C//DTD SVG 1.1//EN" "http://www.w3.org/Graphics/SVG/1.1/DTD/svg11.dtd">
<svg version="1.1" id="xfinitycouch_xA0_Image_1_" xmlns="http://www.w3.org/2000/svg" xmlns:xlink="http://www.w3.org/1999/xlink"
	 x="0px" y="0px" viewBox="0 0 612 792" enable-background="new 0 0 612 792" xml:space="preserve">
<path d="M304,168.4c119.3,0.1,217,96.2,216.9,217.1c-0.1,121-97.9,217.2-217.7,216.8C184,601.9,86.8,505.7,87.1,385.1
	C87.2,264.2,184.9,168.5,304,168.4z M385.3,479.9L385.3,479.9c-0.1,0.1-0.3,0.2-0.4,0.4c-1.7,4.4-4.2,8.4-6.7,12.4
	c-1.1,1.8-2,3.7-3,5.5c-0.2,0.4-0.4,0.6-0.6,0.9c-0.4,0.4-0.8,0.6-1.1,1c-2.8,4.2-5.5,8.4-8.1,12.8c-0.7,1.2-1.3,2.5-1.8,3.8
	c-0.5,1.1-0.3,2,0.6,3c2.1,2.5,3.8,5.4,5,8.4c1.6,4,3,8.1,4.7,12c0.9,1.9,0.8,3.7,0.1,5.5c-1.6,4.5-4,8.6-6.7,12.5
	c-0.9,1.4-1.2,2.7-0.9,4.3c0.3,1.6,0.6,2.1,2.3,2.2c1.5,0.1,2.9-0.1,4.4-0.1c1.6,0,2.7-0.7,3.8-1.7c4.5-4.2,9.1-8.5,13.7-12.7
	c2.1-1.8,2.9-4.1,2.5-6.9c-0.2-1.7-0.5-3.3-0.8-5c-0.6-4-1.2-7.9-2.7-11.7c-1.6-4.1-1.6-8.2,0.3-12.3c0.8-1.8,1.8-3.4,2.8-5
	c5.2-8.1,10.3-16.4,15-24.9c14.3-25.8,22.1-53.5,23.9-82.9c0.7-11.2,0.3-22.3-1.6-33.4c-1.9-11.7-5.5-22.8-11.3-33.1
	c-6.6-11.5-15.4-20.9-26.3-28.5c-1.6-1.1-3.6-1.4-5.8-2.1c0.7,2.2,1.3,4.1,1.9,5.9c2.1,5.9,4.3,11.7,6.3,17.6
	c2.5,7.3,4.3,14.8,5.4,22.5c0.3,2.1,0.1,4.1-0.1,6.2c-0.5-0.4-0.9-0.8-1.2-1.3c-2-2.7-4-5.4-6-8c-12.1-15.8-28-25.9-47.3-30.4
	c-6.7-1.6-13.5-2.3-20.3-2.7c-6.7-0.4-13.5-0.1-20.1,1.6c-5.9,1.6-11.9,3.3-17.6,5.8c-6.7,2.9-13.2,6-19.5,9.6
	c-9.3,5.4-17.7,11.8-25.2,19.4c-3.5,3.5-7.2,6.9-10.6,10.6c-4,4.2-7.2,9.1-10.3,13.9c-0.7,1.1-1.5,2.3-1.8,3.6
	c-0.9,2.9-2.3,5.4-4.3,7.6c-1.7,1.9-2.8,4.2-3.8,6.6c-0.2,0.4-0.2,1-0.1,1.5c0.1,2-0.2,3.9-1.1,5.6c-1.7,3.4-3.5,6.7-5.3,10.1
	c-5.6-3-11.1-5.9-16.6-8.9c0.4-0.5,0.7-0.9,1.1-1.1c3-2.9,5.9-5.8,8.9-8.6c7.2-6.9,14.3-13.9,20.7-21.6c3.8-4.5,7.4-9.1,11.3-13.6
	c5.7-6.8,11.3-13.6,17.1-20.2c8.8-9.8,16.4-20.5,23.9-31.4c3.7-5.4,7.4-10.8,11.3-15.9c3.8-5.1,7.4-10.5,10.8-15.9
	c0.6-0.9,1.1-1.9,1.3-2.9c0.7-3,1.8-5.9,3.2-8.8c3-6.4,6-12.8,8.8-19.3c4.5-10,8.7-20,12-30.5c1.8-5.7,3-11.5,3.3-17.5
	c0-0.5-0.1-0.9-0.1-1.6c-0.6,0.5-1,0.8-1.3,1.1c-10.6,9.9-21.2,19.7-31.6,29.7c-7.4,7.1-14.5,14.4-21.5,21.8
	c-6.9,7.5-14,14.9-19.5,23.7c-1.6,2.4-3.5,4.5-5.4,6.8c-0.3,0.4-0.8,0.9-0.8,1.3c0,1.1-0.7,1.8-1.3,2.5c-4.2,6.1-8.7,12-12.8,18.2
	c-3.8,5.7-7.4,11.5-11,17.4c-2.1,3.4-4,6.8-5.9,10.3c-2.1,4-3.9,8-5.9,12c-2.3,4.7-4.7,9.4-6.9,14.2c-2.9,6.7-5.6,13.4-8.4,20
	c-0.2,0.6-0.5,1.1-0.9,1.8c-0.9-0.9-0.8-1.6-0.4-2.5c1.1-2.4,2.1-4.9,3.1-7.4c2-4.7,3.8-9.6,6-14.2c3.5-7.4,7.3-14.7,10.8-22.2
	c2.5-5.3,5.3-10.4,8.5-15.2c4-5.9,7.1-12.3,11.8-17.7c1.3-1.5,2.2-3.3,3.2-5c2.7-4.7,5.3-9.6,9-13.7c3.1-3.6,5.9-7.6,8.8-11.4
	c5.5-7.1,11.1-14,17.1-20.8c7.7-8.8,15.4-17.6,24-25.6c8.4-7.8,16.9-15.5,25.3-23.2c1.3-1.2,2.4-2.6,3.5-4.3c-0.6,0-1,0-1.3,0
	c-5,0.4-9.9,0.8-14.9,1.2c-11.2,0.8-22.1,3-32.7,6.6c-8.4,2.8-16.4,6.1-24.1,10.6c-10.6,6.2-20,14.2-28.3,23.2
	c-7.9,8.6-15.2,17.9-22.1,27.3c-6.2,8.5-11.1,17.7-14.9,27.6c-3.1,8.1-5.5,16.6-8,24.9c-4.6,15-7,30.3-6.9,46
	c0,5.9,0.1,11.8,0.1,17.7c0.1,7.7,0.2,15.4,1.8,23c0.4,1.6-0.2,2.9-1.3,4c-0.6,0.6-1.3,1.2-2.1,1.8c-3,2.5-6.1,5-8.9,7.6
	c-9.9,9.3-15.2,20.8-16.4,34.3c-1.1,12.1,1.3,23.6,7.4,34.2c1.8,3.3,4,6.4,6.7,9.1c2.8,2.8,6.1,4.2,10.1,4.1
	c3.4-0.1,6.6-0.9,9.8-1.7c9.3-2.5,17.5-6.8,24.2-13.8c3.5-3.7,6.2-7.9,8.7-12.3c0.6-1,1.2-2,1.8-3.1c1.8,2.7,3.5,5.2,4.8,8
	c2.7,6,6.3,11.5,10.5,16.6c5.2,6.4,11.5,11.8,18.1,16.6c7,5.2,14,10.5,20.4,16.4c0.5,0.4,1,0.9,1.6,1.4c-1.9,2-3.7,3.9-5.5,5.7
	c-3.3,3.4-7.2,5.4-12.2,4.8c-3.9-0.4-8.8,4-9.3,7.9c-0.2,1.7,0.5,3.2,2.1,3.9c0.9,0.4,1.8,0.6,2.6,0.6c3.8,0.1,7.7,0.1,11.5,0.2
	c4.1,0.1,7.7-1.1,10.6-4c1.5-1.4,3-2.8,4.5-4c5.5-4.7,11-9.2,16-14.5c0.4-0.4,0.9-0.8,1.3-1.3c-5.5-6.9-11-13.5-16.5-20.3
	c0.4-0.3,0.7-0.5,1.1-0.7c6,7.1,12,14.2,18.1,21.3c-0.9,1.1-1.5,2.3-2.4,3c-7.1,6-14.2,12-21.4,17.9c-4,3.3-8.5,4.9-13.6,4.9
	c-3.2,0-6.2,1-8.9,2.4c-2,1-2.3,3.2-0.6,4.6c0.9,0.7,2,1.1,3,1.4c1.4,0.4,2.9,0.4,4.4,0.5c6,0.4,12.1,0.8,18.1,1.3
	c3.2,0.2,6-0.7,8.7-2.4c1.9-1.3,3.9-2.5,5.8-3.8c12.5-8.6,24.1-18.3,35.3-28.4c1.3-1.2,2.1-2.9,3.1-4.4c-2.3-2.7-4.5-5.3-6.7-7.9
	c-6.4-7.4-12.5-15.2-19.5-22.2c-1.1-1.1-2.1-2.4-3-3.6c-1.6-2.1-3-4.2-3.9-6.7c0.2-0.2,0.4-0.4,0.5-0.6c6.4-5.5,13.5-10.1,21.2-13.2
	c13.5-5.5,27.3-6.2,41.4-3c3,0.7,5.9,1.6,8.6,3.1c2.9,1.7,3.9,3.9,3.1,7.2c-0.4,1.4-0.9,2.8-1.4,4.2c-3.7,8.7-8.3,16.9-13.5,24.8
	c-2.7,4-5.5,8-8.3,12c-0.4,0.6-0.8,1.1-1.2,1.7c-2.4,3.3-2.3,6.5-0.1,9.9c5,7.9,9.9,16,14.8,24c2.3,3.8,2.1,7.2-0.5,10.8
	c-2,2.8-3.8,5.6-5.7,8.4c-0.2,0.4-0.4,0.8-0.6,1.1c3.3,3.8,6.4,3,9.1,0.8c0.3-0.2,0.5-0.4,0.8-0.6c1.8-1.6,3.6-3.1,5.3-4.7
	c1.6-1.5,3.3-2.7,4.1-4.9c0.5-1.3,1.6-2.5,2.3-3.8c1.9-3.1,3.6-6.4,4.8-9.9c0.4-1,0.4-1.9-0.1-2.9c-2.1-4.9-4-9.8-6.8-14.4
	c-1.2-2-2-4.2-3.2-6.2c-0.9-1.6-1.1-3.3-0.5-4.9c0.7-1.7,1.6-3.4,2.5-5c4.5-7.2,9.1-14.2,13.5-21.4c2-3.1,3.8-6.3,5.2-9.7
	c0.1-0.2,0.2-0.4,0.4-0.6C383.9,479.3,384.6,479.6,385.3,479.9z"/>
<path d="M306.2,194.6c-0.3,1.6-0.8,2.8-1.9,4c-16.2,16.2-32.4,32.4-48.7,48.6c-0.4,0.4-0.7,0.7-1.2,1.1c-9.8-5-17.2-12.7-25-20.1
	c0.4-0.5,0.8-1,1.1-1.5c3-3.5,6.5-6.2,10.3-8.8c6.6-4.5,13.7-8.1,21-11.4c9-4,18.3-7.2,27.9-9.5c5-1.2,10-2.1,15.1-2.3
	C305.2,194.6,305.6,194.6,306.2,194.6z"/>
<path d="M313.6,205.1c0.5,1.8,0.1,3.4-0.1,5c-1.2,6.5-3.3,12.8-5.7,19.1c-2.8,7.7-5.8,15.4-8.8,23c-1.5,3.9-3.4,7.7-5.5,11.3
	c-0.9,1.6-1.6,3.3-2.4,4.9c-0.5,1.1-1.1,2.1-2.1,2.8c-1.4,0.9-2.9,0.9-4.2-0.1c-1.3-1.1-2.7-2.1-3.9-3.3c-2.9-2.6-6.4-4.4-9.5-6.8
	c-1.4-1.1-2.7-2.4-3.9-3.8c-1.7-1.9-1.6-3.8,0.1-5.6c3.7-3.8,7.4-7.7,11.2-11.4c11.6-11.1,23-22.5,34.1-34.2
	C313,205.7,313.2,205.5,313.6,205.1z"/>
<path d="M395.9,314c0.6,0.5,1,0.9,1.4,1.2c6.3,5.8,11.5,12.5,15.7,19.9c4.5,7.8,8,16.1,11.4,24.4c0,0.1,0,0.1,0,0.4
	c-0.9,0.1-1.8,0.2-2.7,0.3c-4.5,0.1-8.9-1.1-13-2.8c-1.9-0.8-3-2.6-3.5-4.5c-1.3-5-2.7-9.9-4-14.9c-1.7-6.5-3.3-13-5-19.6
	C395.7,316.9,395.7,315.6,395.9,314z"/>
<path d="M171.2,443.7c-4.7-0.1-7.8-1.6-9.6-5.4c-1.8-3.8-1.8-7.4,0.8-10.8c2.1-2.9,5.1-4.5,8.4-5.5c3.1-0.9,8.9,1.3,10.8,4
	c2.7,3.8,3.3,7.6,0.5,11.8c-1.7,2.6-3.6,4.5-6.7,5C173.8,443.2,172.1,443.5,171.2,443.7z M171.6,441.5c1.1-0.3,3.3-0.8,5.2-1.4
	c0.8-0.3,1.5-0.9,2-1.6c1.8-2.3,3.2-4.7,2.3-7.9c-0.4-1.5-0.9-2.8-1.8-3.9c-1.5-1.7-3.7-2.6-5.8-2.3c-2.6,0.3-5.2,1.2-7.4,2.8
	c-1.5,1.1-2.7,2.5-3.4,4.2c-0.6,1.3-0.6,2.6-0.4,4C163.3,438.5,167.4,441.6,171.6,441.5z"/>
<path d="M385.3,479.9c-0.5-0.5-0.8-1.1-0.3-1.8c0.4-0.5,0.6-1.1,1-1.8C386.5,477.5,386.2,478.6,385.3,479.9
	C385.3,479.8,385.3,479.9,385.3,479.9z"/>
<path d="M172.8,435.7c-4-1.1-4.4-1.6-4.2-6c1.6,0.9,3.3,1.6,4.6,2.8c0.3,0.3,0.4,0.9,0.3,1.4C173.5,434.4,173.1,435,172.8,435.7z"/>
</svg>
